<svg width="24" height="18" viewBox="0 0 24 18" fill="none" xmlns="http://www.w3.org/2000/svg">
<path d="M23.205 8.745C22.3229 6.46324 20.7915 4.48996 18.8001 3.06906C16.8087 1.64817 14.4446 0.84193 12 0.75C9.55537 0.84193 7.19128 1.64817 5.19989 3.06906C3.2085 4.48996 1.67711 6.46324 0.794986 8.745C0.735412 8.90978 0.735412 9.09022 0.794986 9.255C1.67711 11.5368 3.2085 13.51 5.19989 14.9309C7.19128 16.3518 9.55537 17.1581 12 17.25C14.4446 17.1581 16.8087 16.3518 18.8001 14.9309C20.7915 13.51 22.3229 11.5368 23.205 9.255C23.2646 9.09022 23.2646 8.90978 23.205 8.745ZM12 13.875C11.0358 13.875 10.0933 13.5891 9.29158 13.0534C8.48989 12.5177 7.86505 11.7564 7.49607 10.8656C7.1271 9.97479 7.03056 8.99459 7.21866 8.04893C7.40676 7.10328 7.87106 6.23464 8.55284 5.55285C9.23462 4.87107 10.1033 4.40677 11.0489 4.21867C11.9946 4.03057 12.9748 4.12711 13.8656 4.49609C14.7564 4.86506 15.5177 5.48991 16.0534 6.2916C16.5891 7.09329 16.875 8.03582 16.875 9C16.873 10.2923 16.3588 11.5311 15.4449 12.445C14.5311 13.3588 13.2923 13.873 12 13.875Z" fill="#ADB4BD"/>
</svg>
