<svg width="240" height="60" viewBox="30 20 120 60" fill="none" xmlns="http://www.w3.org/2000/svg">
<rect width="180" height="107" fill="none"/>
<path fill-rule="evenodd" clip-rule="evenodd" d="M33.0823 45.5973C35.2449 45.5973 36.998 43.8442 36.998 41.6816C36.998 39.519 35.2449 37.7659 33.0823 37.7659C30.9197 37.7659 29.1666 39.519 29.1666 41.6816C29.1666 43.8442 30.9197 45.5973 33.0823 45.5973ZM34.4948 46.2803C36.1788 45.7409 37.4427 44.2628 37.671 42.4617L44.5571 49.3478L41.0596 52.8452L34.4948 46.2803ZM28.4936 42.4617C28.7219 44.2628 29.9858 45.7409 31.6699 46.2803L25.105 52.8452L21.6076 49.3478L28.4936 42.4617Z" fill="#17517E"/>
<path fill-rule="evenodd" clip-rule="evenodd" d="M41.3125 61.4027C39.1499 61.4027 37.3968 63.1558 37.3968 65.3184C37.3968 67.481 39.1499 69.2341 41.3125 69.2341C43.4751 69.2341 45.2282 67.481 45.2282 65.3184C45.2282 63.1558 43.4751 61.4027 41.3125 61.4027ZM39.9 60.7197C38.216 61.2591 36.9521 62.7372 36.7238 64.5383L29.8377 57.6522L33.3351 54.1548L39.9 60.7197ZM45.9012 64.5383C45.6729 62.7372 44.4089 61.2591 42.7249 60.7197L49.2898 54.1548L52.7872 57.6522L45.9012 64.5383Z" fill="#17517E"/>
<path fill-rule="evenodd" clip-rule="evenodd" d="M44.9559 49.2407C44.9559 51.4032 46.709 53.1563 48.8716 53.1563C51.0341 53.1563 52.7872 51.4032 52.7872 49.2407C52.7872 47.0781 51.0341 45.325 48.8716 45.325C46.709 45.325 44.9559 47.0781 44.9559 49.2407ZM44.2728 50.6531C44.8122 52.3371 46.2903 53.6011 48.0914 53.8294L41.2054 60.7154L37.7079 57.218L44.2728 50.6531ZM48.0914 44.652C46.2903 44.8802 44.8122 46.1442 44.2728 47.8282L37.7079 41.2633L41.2054 37.7659L48.0914 44.652Z" fill="#B11D18"/>
<path fill-rule="evenodd" clip-rule="evenodd" d="M29.4389 57.7593C29.4389 55.5968 27.6858 53.8437 25.5232 53.8437C23.3607 53.8437 21.6076 55.5968 21.6076 57.7593C21.6076 59.9219 23.3607 61.675 25.5232 61.675C27.6858 61.675 29.4389 59.9219 29.4389 57.7593ZM30.122 56.3469C29.5826 54.6629 28.1045 53.3989 26.3033 53.1706L33.1894 46.2846L36.6868 49.782L30.122 56.3469ZM26.3033 62.348C28.1045 62.1197 29.5826 60.8558 30.122 59.1718L36.6868 65.7366L33.1894 69.2341L26.3033 62.348Z" fill="#B11D18"/>
<path d="M61.2268 60.0458C60.3059 58.0565 59.4156 55.975 58.556 53.8015C57.7087 51.628 56.9167 49.4545 56.1799 47.281H58.7402C59.0349 48.1406 59.3358 49.0186 59.6428 49.915C59.9498 50.8114 60.2568 51.6956 60.5637 52.5674C60.8707 53.427 61.1777 54.262 61.4847 55.0725C61.7917 55.8829 62.0926 56.6259 62.3873 57.3013C62.6697 56.6259 62.9644 55.8891 63.2714 55.0909C63.5784 54.2804 63.8854 53.4393 64.1924 52.5674C64.5117 51.6956 64.8248 50.8114 65.1318 49.915C65.4388 49.0186 65.7335 48.1406 66.0159 47.281H68.5026C67.7535 49.4545 66.9553 51.628 66.108 53.8015C65.2607 55.975 64.3766 58.0565 63.4556 60.0458H61.2268ZM68.1264 55.2751C68.1264 54.4278 68.2492 53.6849 68.4948 53.0463C68.7527 52.4078 69.0904 51.8798 69.5079 51.4623C69.9254 51.0325 70.4043 50.7132 70.9446 50.5044C71.4849 50.2834 72.0375 50.1729 72.6023 50.1729C73.9286 50.1729 74.96 50.5843 75.6968 51.407C76.4459 52.2297 76.8204 53.4577 76.8204 55.0909C76.8204 55.2137 76.8143 55.3549 76.802 55.5146C76.802 55.6619 76.7959 55.797 76.7836 55.9198H70.4288C70.4902 56.6934 70.7604 57.2951 71.2393 57.7249C71.7305 58.1424 72.4366 58.3512 73.3575 58.3512C73.8979 58.3512 74.389 58.302 74.8311 58.2038C75.2855 58.1056 75.6416 58.0012 75.8994 57.8907L76.1942 59.7142C76.0714 59.7756 75.8994 59.8431 75.6784 59.9168C75.4697 59.9782 75.2241 60.0335 74.9416 60.0826C74.6715 60.144 74.3768 60.1931 74.0575 60.23C73.7382 60.2668 73.4128 60.2852 73.0813 60.2852C72.234 60.2852 71.4972 60.1624 70.8709 59.9168C70.2446 59.659 69.7289 59.309 69.3237 58.8669C68.9184 58.4126 68.6176 57.8845 68.4211 57.2828C68.2246 56.6688 68.1264 55.9996 68.1264 55.2751ZM74.5917 54.2804C74.5917 53.9735 74.5487 53.6849 74.4627 53.4147C74.3768 53.1323 74.2478 52.8928 74.0759 52.6964C73.9163 52.4876 73.7137 52.328 73.4681 52.2175C73.2348 52.0947 72.9523 52.0333 72.6208 52.0333C72.2769 52.0333 71.9761 52.1008 71.7182 52.2359C71.4603 52.3587 71.2393 52.5245 71.0551 52.7332C70.8832 52.942 70.7481 53.1814 70.6499 53.4516C70.5516 53.7217 70.4841 53.998 70.4473 54.2804H74.5917ZM84.0278 52.4201C83.8436 52.3587 83.5857 52.2973 83.2542 52.2359C82.9349 52.1622 82.5604 52.1254 82.1306 52.1254C81.885 52.1254 81.621 52.1499 81.3385 52.199C81.0684 52.2482 80.878 52.2911 80.7675 52.328V60.0458H78.5388V50.8728C78.9686 50.7132 79.5027 50.5658 80.1413 50.4308C80.7921 50.2834 81.5104 50.2097 82.2963 50.2097C82.4437 50.2097 82.6156 50.222 82.8121 50.2466C83.0086 50.2588 83.205 50.2834 83.4015 50.3202C83.598 50.3448 83.7883 50.3816 83.9725 50.4308C84.1567 50.4676 84.3041 50.5044 84.4146 50.5413L84.0278 52.4201ZM87.5702 60.0458H85.3415V50.4123H87.5702V60.0458ZM87.8097 47.5942C87.8097 48.0117 87.6746 48.3432 87.4045 48.5888C87.1343 48.8344 86.815 48.9572 86.4466 48.9572C86.066 48.9572 85.7406 48.8344 85.4704 48.5888C85.2003 48.3432 85.0652 48.0117 85.0652 47.5942C85.0652 47.1644 85.2003 46.8267 85.4704 46.5811C85.7406 46.3355 86.066 46.2127 86.4466 46.2127C86.815 46.2127 87.1343 46.3355 87.4045 46.5811C87.6746 46.8267 87.8097 47.1644 87.8097 47.5942ZM96.1605 55.2751C96.1605 54.2804 95.9333 53.5068 95.479 52.9542C95.0369 52.4017 94.3185 52.1254 93.3239 52.1254C93.1151 52.1254 92.8941 52.1376 92.6608 52.1622C92.4398 52.1745 92.2187 52.2113 91.9977 52.2727V57.7802C92.1942 57.9152 92.452 58.0442 92.7713 58.167C93.1029 58.2775 93.4528 58.3327 93.8212 58.3327C94.6317 58.3327 95.2211 58.0565 95.5895 57.5039C95.9702 56.9513 96.1605 56.2084 96.1605 55.2751ZM98.4445 55.2383C98.4445 55.975 98.3463 56.6504 98.1498 57.2644C97.9656 57.8784 97.6955 58.4064 97.3394 58.8485C96.9832 59.2906 96.535 59.6344 95.9947 59.88C95.4667 60.1256 94.865 60.2484 94.1896 60.2484C93.7353 60.2484 93.3178 60.1931 92.9371 60.0826C92.5564 59.9721 92.2433 59.8493 91.9977 59.7142V63.4534H89.7689V50.7255C90.2233 50.6027 90.782 50.486 91.4451 50.3755C92.1082 50.265 92.8081 50.2097 93.5449 50.2097C94.3063 50.2097 94.9878 50.3264 95.5895 50.5597C96.1912 50.793 96.7008 51.1307 97.1183 51.5728C97.5481 52.0026 97.8735 52.5306 98.0946 53.1569C98.3279 53.7708 98.4445 54.4646 98.4445 55.2383ZM103.486 58.4801C104.174 58.4801 104.696 58.4433 105.052 58.3696V55.9014C104.929 55.8645 104.751 55.8277 104.518 55.7908C104.284 55.754 104.026 55.7356 103.744 55.7356C103.498 55.7356 103.247 55.754 102.989 55.7908C102.743 55.8277 102.516 55.8952 102.307 55.9935C102.111 56.0917 101.951 56.2329 101.828 56.4171C101.705 56.589 101.644 56.8101 101.644 57.0802C101.644 57.6082 101.81 57.9766 102.141 58.1854C102.473 58.3819 102.921 58.4801 103.486 58.4801ZM103.302 50.1729C104.039 50.1729 104.659 50.265 105.162 50.4492C105.666 50.6334 106.065 50.8913 106.359 51.2228C106.666 51.5544 106.881 51.9596 107.004 52.4385C107.139 52.9051 107.207 53.4209 107.207 53.9857V59.8247C106.863 59.8984 106.341 59.9844 105.641 60.0826C104.953 60.1931 104.174 60.2484 103.302 60.2484C102.725 60.2484 102.197 60.1931 101.718 60.0826C101.239 59.9721 100.827 59.794 100.484 59.5484C100.152 59.3028 99.8881 58.9836 99.6916 58.5906C99.5074 58.1977 99.4153 57.7126 99.4153 57.1355C99.4153 56.5829 99.5197 56.1163 99.7284 55.7356C99.9495 55.3549 100.244 55.0479 100.613 54.8146C100.981 54.569 101.405 54.3971 101.884 54.2989C102.375 54.1883 102.884 54.1331 103.412 54.1331C103.658 54.1331 103.916 54.1515 104.186 54.1883C104.456 54.2129 104.745 54.262 105.052 54.3357V53.9673C105.052 53.7094 105.021 53.4638 104.96 53.2305C104.898 52.9972 104.788 52.7946 104.628 52.6227C104.481 52.4385 104.278 52.2973 104.02 52.199C103.775 52.1008 103.461 52.0517 103.081 52.0517C102.565 52.0517 102.092 52.0885 101.662 52.1622C101.233 52.2359 100.883 52.3218 100.613 52.4201L100.336 50.615C100.619 50.5167 101.03 50.4185 101.57 50.3202C102.111 50.222 102.688 50.1729 103.302 50.1729ZM116.923 50.4123C115.928 54.0717 114.774 57.3872 113.46 60.3589C113.214 60.9115 112.963 61.3842 112.705 61.7772C112.447 62.1701 112.158 62.4956 111.839 62.7534C111.52 63.0113 111.164 63.1955 110.771 63.306C110.378 63.4288 109.923 63.4902 109.408 63.4902C109.064 63.4902 108.72 63.4534 108.376 63.3797C108.045 63.306 107.793 63.2262 107.621 63.1402L108.026 61.3535C108.468 61.5255 108.904 61.6114 109.334 61.6114C109.911 61.6114 110.359 61.4702 110.679 61.1878C111.01 60.9176 111.299 60.494 111.544 59.9168C110.844 58.5661 110.169 57.0925 109.518 55.4961C108.88 53.8998 108.309 52.2052 107.805 50.4123H110.181C110.304 50.9281 110.451 51.4868 110.623 52.0885C110.807 52.6902 111.004 53.3042 111.213 53.9305C111.421 54.5445 111.643 55.1584 111.876 55.7724C112.109 56.3864 112.342 56.9574 112.576 57.4854C112.969 56.3926 113.337 55.2321 113.681 54.0042C114.025 52.7639 114.338 51.5666 114.62 50.4123H116.923ZM121.169 58.3143C122.004 58.3143 122.612 58.1731 122.993 57.8907C123.374 57.6082 123.564 57.2092 123.564 56.6934C123.564 56.3864 123.496 56.1224 123.361 55.9014C123.239 55.6803 123.054 55.4839 122.809 55.3119C122.576 55.1277 122.287 54.962 121.943 54.8146C121.599 54.655 121.206 54.5015 120.764 54.3541C120.322 54.1945 119.892 54.0226 119.475 53.8384C119.07 53.6419 118.707 53.4024 118.388 53.12C118.081 52.8376 117.829 52.4999 117.633 52.1069C117.449 51.714 117.357 51.2412 117.357 50.6886C117.357 49.5343 117.756 48.6318 118.554 47.981C119.352 47.3179 120.439 46.9863 121.814 46.9863C122.612 46.9863 123.318 47.0784 123.932 47.2626C124.559 47.4345 125.05 47.6249 125.406 47.8336L124.688 49.7124C124.27 49.4791 123.81 49.301 123.306 49.1782C122.815 49.0554 122.305 48.994 121.777 48.994C121.151 48.994 120.66 49.123 120.304 49.3808C119.96 49.6387 119.788 50.001 119.788 50.4676C119.788 50.75 119.843 50.9956 119.954 51.2044C120.077 51.4009 120.242 51.5789 120.451 51.7386C120.672 51.8982 120.924 52.0455 121.206 52.1806C121.501 52.3157 121.82 52.4446 122.164 52.5674C122.766 52.7885 123.3 53.0156 123.767 53.249C124.246 53.47 124.645 53.7401 124.964 54.0594C125.295 54.3664 125.547 54.7348 125.719 55.1646C125.891 55.5821 125.977 56.0917 125.977 56.6934C125.977 57.8477 125.566 58.7441 124.743 59.3827C123.932 60.0089 122.741 60.3221 121.169 60.3221C120.641 60.3221 120.156 60.2852 119.714 60.2115C119.285 60.1501 118.898 60.0703 118.554 59.9721C118.222 59.8738 117.934 59.7756 117.688 59.6774C117.443 59.5669 117.246 59.4686 117.099 59.3827L117.78 57.4854C118.112 57.6696 118.56 57.8538 119.125 58.038C119.69 58.2222 120.371 58.3143 121.169 58.3143ZM135.169 59.751C134.739 59.8616 134.181 59.9721 133.493 60.0826C132.805 60.2054 132.05 60.2668 131.227 60.2668C130.454 60.2668 129.803 60.1563 129.275 59.9352C128.759 59.7142 128.342 59.4072 128.022 59.0143C127.715 58.6213 127.494 58.1547 127.359 57.6144C127.224 57.0618 127.157 56.4601 127.157 55.8093V50.4123H129.385V55.4593C129.385 56.4908 129.533 57.2276 129.827 57.6696C130.134 58.1117 130.662 58.3327 131.411 58.3327C131.682 58.3327 131.964 58.3205 132.259 58.2959C132.566 58.2713 132.793 58.2406 132.94 58.2038V50.4123H135.169V59.751ZM139.608 60.0458H137.38V50.4123H139.608V60.0458ZM139.848 47.5942C139.848 48.0117 139.713 48.3432 139.443 48.5888C139.172 48.8344 138.853 48.9572 138.485 48.9572C138.104 48.9572 137.779 48.8344 137.508 48.5888C137.238 48.3432 137.103 48.0117 137.103 47.5942C137.103 47.1644 137.238 46.8267 137.508 46.5811C137.779 46.3355 138.104 46.2127 138.485 46.2127C138.853 46.2127 139.172 46.3355 139.443 46.5811C139.713 46.8267 139.848 47.1644 139.848 47.5942ZM141.696 47.8704L143.925 47.5021V50.4123H147.351V52.2727H143.925V56.1961C143.925 56.9697 144.048 57.5223 144.294 57.8538C144.539 58.1854 144.957 58.3512 145.546 58.3512C145.951 58.3512 146.307 58.3082 146.614 58.2222C146.934 58.1363 147.185 58.0565 147.37 57.9828L147.738 59.751C147.48 59.8616 147.143 59.9721 146.725 60.0826C146.307 60.2054 145.816 60.2668 145.251 60.2668C144.564 60.2668 143.987 60.1747 143.52 59.9905C143.066 59.8063 142.703 59.5423 142.433 59.1985C142.163 58.8424 141.973 58.4187 141.862 57.9275C141.752 57.424 141.696 56.853 141.696 56.2145V47.8704ZM148.165 55.2751C148.165 54.4278 148.288 53.6849 148.533 53.0463C148.791 52.4078 149.129 51.8798 149.547 51.4623C149.964 51.0325 150.443 50.7132 150.983 50.5044C151.524 50.2834 152.076 50.1729 152.641 50.1729C153.967 50.1729 154.999 50.5843 155.735 51.407C156.485 52.2297 156.859 53.4577 156.859 55.0909C156.859 55.2137 156.853 55.3549 156.841 55.5146C156.841 55.6619 156.834 55.797 156.822 55.9198H150.467C150.529 56.6934 150.799 57.2951 151.278 57.7249C151.769 58.1424 152.475 58.3512 153.396 58.3512C153.936 58.3512 154.428 58.302 154.87 58.2038C155.324 58.1056 155.68 58.0012 155.938 57.8907L156.233 59.7142C156.11 59.7756 155.938 59.8431 155.717 59.9168C155.508 59.9782 155.263 60.0335 154.98 60.0826C154.71 60.144 154.415 60.1931 154.096 60.23C153.777 60.2668 153.451 60.2852 153.12 60.2852C152.273 60.2852 151.536 60.1624 150.91 59.9168C150.283 59.659 149.768 59.309 149.362 58.8669C148.957 58.4126 148.656 57.8845 148.46 57.2828C148.263 56.6688 148.165 55.9996 148.165 55.2751ZM154.63 54.2804C154.63 53.9735 154.587 53.6849 154.501 53.4147C154.415 53.1323 154.286 52.8928 154.115 52.6964C153.955 52.4876 153.752 52.328 153.507 52.2175C153.273 52.0947 152.991 52.0333 152.659 52.0333C152.316 52.0333 152.015 52.1008 151.757 52.2359C151.499 52.3587 151.278 52.5245 151.094 52.7332C150.922 52.942 150.787 53.1814 150.689 53.4516C150.59 53.7217 150.523 53.998 150.486 54.2804H154.63Z" fill="#515151"/>
<defs>
<radialGradient id="paint0_radial_162_3021" cx="0" cy="0" r="1" gradientUnits="userSpaceOnUse" gradientTransform="translate(90 53.5) rotate(90) scale(53.5 90)">
<stop stop-color="white"/>
<stop offset="0.5" stop-color="white"/>
<stop offset="1" stop-color="#F1F1F1"/>
</radialGradient>
</defs>
</svg>
